<?xml version="1.0" encoding="utf-8"?>
<!-- Generator: Adobe Illustrator 15.1.0, SVG Export Plug-In . SVG Version: 6.00 Build 0)  -->
<!DOCTYPE svg PUBLIC "-//W3C//DTD SVG 1.1//EN" "http://www.w3.org/Graphics/SVG/1.1/DTD/svg11.dtd">
<svg version="1.1" id="Layer_1" xmlns="http://www.w3.org/2000/svg" xmlns:xlink="http://www.w3.org/1999/xlink" x="0px" y="0px"
	 width="498px" height="123.5px" viewBox="0 0 498 123.5" enable-background="new 0 0 498 123.5" xml:space="preserve" preserveAspectRatio="none">
<path  fill="#000000" d="M486.558,31.242c-1.031-4.27-2.927-7.117-5.825-9.252c-1.929-4.77-7.789-8.493-14.957-9.26
	c-0.615-0.146-1.246-0.292-1.899-0.435c-1.484-0.323-16.657-0.481-46.384-0.481c-58.438,0-159.276,0.609-242.908,1.146
	c-10.96,0.017-21.584,0.03-31.699,0.043l-91.221-1.237c-10.129-0.582-17.144-0.781-20.744-0.59
	c-0.891,0.048-1.737,0.129-2.544,0.235c-7.132,0.142-12.953,3.337-14.993,7.913c-0.69,0.859-1.217,1.793-1.589,2.775
	c-0.76,1.361-1.192,2.846-1.192,4.418v3.379c-0.142,0.65-0.27,1.305-0.385,1.963c-0.528,3.016-1.082,14.277-1.313,26.699
	C7.967,72.99,7.473,88.031,8.492,93.212c0.157,0.796,0.353,1.529,0.568,2.234c0.242,1.157,0.711,2.283,1.41,3.348
	c0.325,0.988,0.831,1.938,1.498,2.837c0.78,1.193,1.708,2.197,2.794,3.04c3.771,3.258,9.583,4.281,18.064,4.733
	c0.905,0.048,2.421,0.072,4.504,0.072c1.879,0,6.368,0.005,13.01,0.014c20.6,0.184,60.454,0.452,107.541,0.705
	c101.727,1.675,236.425,3.468,284.686,3.468c11.057,0,17.4-0.094,18.855-0.277c1.052-0.133,2.028-0.276,2.948-0.43
	c2.154-0.214,4.197-0.701,6.05-1.421c3.866-1.288,5.877-3.004,7.303-5.251c0.215-0.288,0.415-0.581,0.599-0.881
	c2.563-1.586,4.125-3.693,5.325-6.648C486.461,91.823,488.692,40.084,486.558,31.242z M12.103,22.533
	c0.183-0.338,0.388-0.669,0.615-0.991c-0.048,0.296-0.095,0.593-0.113,0.896l-0.085,1.61c-0.01,0.025-0.02,0.05-0.03,0.074
	c-0.326,0.686-0.613,1.391-0.867,2.111l0.019-1.148C11.658,24.204,11.825,23.353,12.103,22.533z M13.36,20.715
	c0.598-0.699,1.3-1.348,2.092-1.94c-0.33,0.499-0.636,1.013-0.917,1.542c-0.578,0.817-1.075,1.683-1.506,2.584l0.023-0.438
	C13.087,21.863,13.202,21.283,13.36,20.715z M15.649,103.926c-0.17-0.146-0.334-0.299-0.495-0.455
	c3.558,2.092,8.524,3.094,15.146,3.844c0.864,0.098,2.338,0.209,4.375,0.33l-7.188-0.027c-0.244,0.004-0.483-0.017-0.726-0.021
	C21.88,106.972,18.26,105.932,15.649,103.926z M10.108,59.447c0.153-2.461,0.319-4.911,0.493-7.299v8.242l-0.589,11.164
	C10.002,67.574,10.038,63.46,10.108,59.447z M10.561,90.021l0.041-2.432v2.952C10.588,90.37,10.574,90.195,10.561,90.021z
	 M10.221,83.646c-0.058-1.588-0.103-3.259-0.136-4.992l0.319-6.052L10.221,83.646z M11.345,42.886
	c0.138-1.559,0.277-3.044,0.415-4.437l-0.497,9.421L11.345,42.886z M12.605,99.818c-0.461-0.986-0.855-2.08-1.177-3.313
	c-0.139-0.533-0.266-1.192-0.382-1.951V60.887l0.011-0.635l1.538-29.132c0.187-1.357,0.362-2.409,0.52-3.08
	c0.459-1.959,1.021-3.887,1.802-5.687c1.354-1.969,3.199-3.662,5.775-4.91c-2.458,2.85-3.746,6.462-4.641,10.203l-0.579,0.02
	l-0.039,0.166c-1.791,7.644-5.306,55.722-3.412,65.357c1.272,6.465,4.47,9.787,10.077,11.736
	C17.764,103.912,14.685,102.401,12.605,99.818z M464.274,14.623c4.678,1.123,8.773,2.333,11.865,4.83
	c-1.93-0.817-4.127-1.536-6.618-2.242l-0.033-0.009l-1.581,0.056c-0.356-0.067-1.033-0.133-1.981-0.198
	c-6.124-1.04-100.54-1.797-200.43-2.599c-12.439-0.1-24.933-0.199-37.298-0.301l-1.262-0.018l13.474-0.063l217.641,0.245
	C461.739,14.413,463.812,14.512,464.274,14.623z M43.136,108.354l14.519-0.027c1.649,0.038,3.376,0.077,5.172,0.116
	c-3.207-0.004-6.155-0.008-8.786-0.011c-1.087-0.001-2.129-0.003-3.125-0.004C47.916,108.402,45.315,108.377,43.136,108.354z
	 M466.48,14.066c-0.605-0.158-1.229-0.315-1.872-0.47c-0.841-0.202-6.159-0.365-16.192-0.493l8.45-0.039
	c3.969,0.068,6.214,0.155,6.697,0.261c1.203,0.263,2.362,0.534,3.483,0.828C466.857,14.125,466.672,14.091,466.48,14.066z
	 M26.172,13.449c-0.977,0.071-1.927,0.199-2.844,0.381c1.722-0.708,3.753-1.201,6.125-1.449
	C28.257,12.666,27.161,13.02,26.172,13.449z M22.342,14.513c-0.521,0.19-1.021,0.394-1.495,0.612
	c0.196-0.125,0.389-0.254,0.595-0.372C21.736,14.665,22.039,14.59,22.342,14.513z M322.805,110.835l106.831,1.733
	c-37.621-0.167-104.475-0.956-172.665-1.923C279.382,110.728,301.658,110.793,322.805,110.835z M353.072,110.879
	c5.481,0.005,10.842,0.007,16.053,0.007c58.876,0,90.497-0.297,93.984-0.881c1.023-0.172,1.974-0.351,2.87-0.536
	c2.047-0.276,3.979-0.793,5.733-1.515c1.661-0.413,3.107-0.873,4.356-1.404c-2.205,2.877-5.893,4.646-14.854,5.78
	c-0.728,0.092-2.739,0.16-5.993,0.206L353.072,110.879z M16.319,17.582c-0.933,0.573-1.776,1.214-2.505,1.919
	c0.865-1.054,1.967-1.993,3.253-2.794C16.805,16.99,16.558,17.283,16.319,17.582z M110.478,13.03
	c-9.946-0.124-18.968-0.253-26.831-0.385l28.339,0.384C111.48,13.029,110.979,13.03,110.478,13.03z M24.277,12.293
	c-2.438,0.762-4.384,1.863-5.959,3.213c-1.401,0.692-2.64,1.529-3.677,2.488C16.542,15.233,19.998,13.162,24.277,12.293z
	 M11.046,26.518c0-0.498,0.062-0.986,0.152-1.467c0,0.009-0.002,0.018-0.002,0.027l-0.044,2.631
	c-0.035,0.123-0.072,0.244-0.105,0.367V26.518z"/>
</svg>
