<svg xmlns="http://www.w3.org/2000/svg" xmlns:xlink="http://www.w3.org/1999/xlink" viewBox="0 0 96 96">
	<defs>
		<linearGradient id="a" x1="9.84" y1="9.84" x2="86.16" y2="86.16" gradientUnits="userSpaceOnUse">
			<stop offset="0" stop-color="#284ea0"/>
			<stop offset="0.53" stop-color="#264a99"/>
			<stop offset="1" stop-color="#24458e"/>
		</linearGradient>
	</defs>
	<rect width="96" height="96" rx="33.49" ry="33.49" fill="url(#a)"/>
	<path d="M42.15,71.58v-16a.79.79,0,0,1,.79-.8H53.06a.79.79,0,0,1,.79.8v16a.8.8,0,0,0,.8.8H67.7a.8.8,0,0,0,.79-.8V49.75a.79.79,0,0,1,.79-.79h5.93a.79.79,0,0,0,.53-1.38L48.53,23.09a.79.79,0,0,0-1.06,0L20.26,47.58A.79.79,0,0,0,20.79,49h5.93a.79.79,0,0,1,.79.79V71.58a.8.8,0,0,0,.79.8H41.35A.8.8,0,0,0,42.15,71.58Z" opacity="0.15"/>
	<path d="M42.25,70.16V54.46a.77.77,0,0,1,.78-.77H53a.77.77,0,0,1,.78.77v15.7a.77.77,0,0,0,.78.77H67.35a.77.77,0,0,0,.77-.77V48.71a.77.77,0,0,1,.78-.77h5.82a.78.78,0,0,0,.52-1.36l-26.72-24a.79.79,0,0,0-1,0l-26.72,24a.78.78,0,0,0,.52,1.36H27.1a.77.77,0,0,1,.78.77V70.16a.77.77,0,0,0,.77.77H41.47A.77.77,0,0,0,42.25,70.16Z" fill="#fff"/>
</svg>
