<svg xmlns="http://www.w3.org/2000/svg" viewBox="0 0 69.5 47.4"><title>culinary</title><path d="M414.1,388.7a1.2,1.2,0,0,0-.2,1.5,15.5,15.5,0,1,1-12.3-6,15.8,15.8,0,0,1,9.4,3.1,1.1,1.1,0,0,0,1.6-.2,1.2,1.2,0,0,0-.2-1.5,17.7,17.7,0,1,0-10.8,31.7,17.7,17.7,0,0,0,17.7-17.7,17.3,17.3,0,0,0-3.6-10.7,1.1,1.1,0,0,0-1.6-.2Zm0,0" transform="translate(-365.8 -376)" fill="#fff" stroke="#212a72" stroke-miterlimit="10" stroke-width="0.2"/><path d="M401.6,376.1a23.6,23.6,0,1,0,23.6,23.5,23.6,23.6,0,0,0-23.6-23.5Zm0,44.9A21.4,21.4,0,1,1,423,399.6,21.3,21.3,0,0,1,401.6,421Zm0,0" transform="translate(-365.8 -376)" fill="#fff" stroke="#212a72" stroke-miterlimit="10" stroke-width="0.2"/><path d="M375.8,376.1a1,1,0,0,0-1.1,1.1v9.2h-2.2v-9.2a1.1,1.1,0,0,0-2.2,0v9.2h-2.2v-9.2a1.1,1.1,0,0,0-2.2,0v13.2a5.5,5.5,0,0,0,4.4,5.4v26.3a1.1,1.1,0,0,0,2.2,0V395.8a5.5,5.5,0,0,0,4.4-5.4V377.2a1,1,0,0,0-1.1-1.1Zm-4.4,17.6a3.3,3.3,0,0,1-3.3-3.3v-1.8h6.6v1.8a3.3,3.3,0,0,1-3.3,3.3Zm0,0" transform="translate(-365.8 -376)" fill="#fff" stroke="#212a72" stroke-miterlimit="10" stroke-width="0.2"/><path d="M434.1,376.1a5.5,5.5,0,0,0-5.6,5.5v20.2a1.1,1.1,0,0,0,1.1,1.2h3.3v19.1a1.1,1.1,0,0,0,1.2,1.1,1.1,1.1,0,0,0,1.1-1.1V377.2a1,1,0,0,0-1.1-1.1Zm-1.2,24.6h-2.2V381.6a3.3,3.3,0,0,1,2.2-3.1Zm0,0" transform="translate(-365.8 -376)" fill="#fff" stroke="#212a72" stroke-miterlimit="10" stroke-width="0.2"/></svg>