<svg xmlns="http://www.w3.org/2000/svg" viewBox="0 0 65.7 53.3"><title>explore</title><path d="M431.6,405.5a4.2,4.2,0,0,1-.2-.6L423,384.7a10.8,10.8,0,0,0-5.1-5.6l-.8-1.9a6.1,6.1,0,0,0-2.5-3,6.7,6.7,0,0,0-10.4,5.6V382a11.1,11.1,0,0,0-2.4,6.9v.8h-4v-.8a11.2,11.2,0,0,0-2.5-6.9v-2.2a6.7,6.7,0,0,0-6.7-6.7,7,7,0,0,0-3.7,1.1,6.7,6.7,0,0,0-2.5,3l-.8,1.9a11.2,11.2,0,0,0-5.1,5.6l-2.1,5.2a1,1,0,0,0,.5,1.3,1,1,0,0,0,1.3-.6l2.1-5.1a9,9,0,0,1,8.4-5.7,9.1,9.1,0,0,1,9.1,9.1v14.6a15.5,15.5,0,0,0-23.1-4.6l2.2-5.1a1,1,0,0,0-.6-1.3,1.1,1.1,0,0,0-1.3.6l-4.8,11.8a3.6,3.6,0,0,0-.3.7,16.2,16.2,0,0,0-1,5.4,15.5,15.5,0,0,0,30.9,0v-.6h4v.6a15.4,15.4,0,0,0,30.8,0,14.5,14.5,0,0,0-1-5.5Zm-44.9-27.6a11.5,11.5,0,0,0-2.6.3V378a4.9,4.9,0,0,1,1.8-2.2,5,5,0,0,1,2.6-.8,4.9,4.9,0,0,1,4.8,4.8v.3a11.2,11.2,0,0,0-6.7-2.2Zm24.2-2.9a5,5,0,0,1,2.7.8,4.7,4.7,0,0,1,1.7,2.2v.2a10.9,10.9,0,0,0-2.6-.3,10.7,10.7,0,0,0-6.6,2.2v-.3a4.8,4.8,0,0,1,4.7-4.8Zm-7.2,13.9a9.1,9.1,0,0,1,9.1-9.1,9,9,0,0,1,8.4,5.7l5.6,13.4a15.3,15.3,0,0,0-9.6-3.3,15.6,15.6,0,0,0-13.5,7.9Zm-1.9,2.7V401h-4v-9.4Zm-19.5,32.9A13.5,13.5,0,1,1,395.8,411a13.5,13.5,0,0,1-13.5,13.5Zm15.5-16.1v-5.5h4v5.5Zm19.4,16.1A13.5,13.5,0,1,1,430.7,411a13.6,13.6,0,0,1-13.5,13.5Zm0,0" transform="translate(-366.9 -373.1)" fill="#fff"/><path d="M382.3,400.4A10.6,10.6,0,1,0,393,411,10.6,10.6,0,0,0,382.3,400.4Zm7.5,15.2h-.1l-.3.5v.2l-.4.4a.3.3,0,0,0-.1.2l-.4.3-.2.2-.4.3h-.1l-1,.7h-.1l-.4.2h-.3l-.4.2h-6.3l-.4-.2h-.3l-.4-.2H378l-1-.7h-.1l-.5-.3c0-.1-.1-.1-.1-.2l-.4-.3a.3.3,0,0,0-.1-.2l-.4-.4c0-.1-.1-.1-.1-.2l-.3-.4v-.2a8,8,0,0,1-.8-1.6c0-.1-.1-.2-.1-.3v-.4a.3.3,0,0,0-.1-.2h0a14.9,14.9,0,0,1-.2-2.1,13.6,13.6,0,0,1,.2-2.1h0v-.2c0-.1.1-.2.1-.4s.1-.2.1-.3.1-.3.2-.4.1-.2.1-.3a2.2,2.2,0,0,1,.5-.8v-.2l.3-.4a.3.3,0,0,1,.1-.2c.1-.2.3-.3.4-.4s.1-.1.1-.2.3-.3.4-.4h.2a.8.8,0,0,1,.4-.4h.2l1.4-.9h.3l.4-.2h.7l.5-.2h3.9l.5.2h.7l.4.2h.3l1.4.9h.2c.1.1.3.2.4.4h.2l.3.4.2.2.3.4c.1,0,.1.1.2.2l.3.4a.1.1,0,0,0,.1.1l.5,1c0,.1.1.1.1.2s.1.3.1.4l.2.3c0,.2,0,.3.1.4v.2h0a7.1,7.1,0,0,1,.3,2.1,14.9,14.9,0,0,1-.2,2.1h0c-.1,0-.1.1-.1.2v.4a.4.4,0,0,0-.1.3A11.9,11.9,0,0,1,389.8,415.6Z" transform="translate(-366.9 -373.1)" fill="#fff"/><path d="M425.7,404.6a.9.9,0,1,0-1.5,1.1,6,6,0,0,1,.9,1.5h0l.3.8a.1.1,0,0,1,.1.1c.1.2.1.4.2.6h0a6.6,6.6,0,0,1,.3,2.1,7.6,7.6,0,0,1-.3,2.1h0c0,.1-.1.2-.1.4h0a8.8,8.8,0,0,1-16.8,0h0c0-.1-.1-.3-.1-.4h0a7.6,7.6,0,0,1-.3-2.1,6.6,6.6,0,0,1,.3-2.1h0a8.8,8.8,0,0,1,8.5-6.6,9.2,9.2,0,0,1,5,1.5.8.8,0,0,0,1.2-.2.9.9,0,0,0-.3-1.3,10.3,10.3,0,0,0-5.9-1.8A10.6,10.6,0,1,0,427.8,411,10.7,10.7,0,0,0,425.7,404.6Z" transform="translate(-366.9 -373.1)" fill="#fff"/></svg>