<svg xmlns="http://www.w3.org/2000/svg" viewBox="0 0 53.5 53.4"><title>home</title><path d="M398,378.8c-.6-3.5-3.6-5.6-6.6-4.8s-4.5,4.3-3.2,7.6l6.6,16.8c1.3,3.3,3.5,5.7,4.8,5.3s2-3.5,1.4-7Z" transform="translate(-373.3 -372.9)" fill="none" stroke="#fff" stroke-miterlimit="10" stroke-width="1.82"/><path d="M424.5,391.9c1.9-2.1,1.8-5-.2-6.6s-4.8-.8-6.3,1.7l-7.5,12.3c-1.5,2.4-2,5-1.1,5.6s3.2-.4,5.2-2.5Z" transform="translate(-373.3 -372.9)" fill="none" stroke="#fff" stroke-miterlimit="10" stroke-width="1.82"/><path d="M379.8,398.3a3.4,3.4,0,0,0-5.2.7c-1,1.7-.2,3.9,1.9,4.9l10.5,4.9c2.1.9,4.1,1.1,4.6.3s-.7-2.5-2.5-3.9Z" transform="translate(-373.3 -372.9)" fill="none" stroke="#fff" stroke-miterlimit="10" stroke-width="1.82"/><path d="M411.2,417.1a8.3,8.3,0,1,1-8.3-8.3A8.3,8.3,0,0,1,411.2,417.1Z" transform="translate(-373.3 -372.9)" fill="none" stroke="#fff" stroke-miterlimit="10" stroke-width="1.82"/></svg>