<svg xmlns="http://www.w3.org/2000/svg" viewBox="0 0 54.6 54.6"><title>park</title><path d="M377.5,385.5a2.8,2.8,0,0,1-2.7-2.8,2.7,2.7,0,0,1,2.7-2.7.9.9,0,0,0,.7-.3,1.1,1.1,0,0,0,.2-.6,4.6,4.6,0,0,1,9.1-.7,7,7,0,0,0-5,6.7v.4ZM389.4,413c-.4,0-.7.2-1.1.9a7.2,7.2,0,0,1-6.1,3.4,7.7,7.7,0,0,1-2.2-15,.9.9,0,0,0,.6-.6,1.4,1.4,0,0,0-.3-.9,6.6,6.6,0,0,1-1.9-4.6,6.3,6.3,0,0,1,6.1-6.5.7.7,0,0,0,.9-.5.8.8,0,0,0,0-.9,5.1,5.1,0,1,1,9-3.2,5.8,5.8,0,0,1-1,3.2.8.8,0,0,0-.1.9.9.9,0,0,0,.8.5,6.4,6.4,0,0,1,6.2,6.5,6.6,6.6,0,0,1-1.9,4.6,1,1,0,0,0-.2.9c0,.3.3.5.6.6a7.8,7.8,0,0,1,5,8.5,7.6,7.6,0,0,1-7.3,6.5,7.2,7.2,0,0,1-6.1-3.4C389.9,413.1,389.8,413,389.4,413Zm-1,12.5v-8.9a4.7,4.7,0,0,0,1-1,2.8,2.8,0,0,0,.9,1v8.9Zm3.7,0V418a9.4,9.4,0,0,0,8.4-16.9,8.1,8.1,0,0,0,1.7-4.9,8.4,8.4,0,0,0-6.6-8.2,6.8,6.8,0,0,0-.5-6.6,7,7,0,0,0-5.7-3.3h-.1a6.5,6.5,0,0,0-6.4-5.4,6.4,6.4,0,0,0-6.2,5.6,4.5,4.5,0,0,0,.8,9h5.3l.3.7a8.4,8.4,0,0,0-6.6,8.2,8.1,8.1,0,0,0,1.7,4.9,9.5,9.5,0,0,0-5.2,8.5,9.4,9.4,0,0,0,9.2,9.5,9.3,9.3,0,0,0,4.4-1.1v7.5H382a.9.9,0,0,0,0,1.8h14.4a.9.9,0,0,0,0-1.8Z" transform="translate(-373 -372.7)" fill="#fff"/><path d="M423.9,386.4a6.4,6.4,0,0,0-12.7,0,4.6,4.6,0,0,0,.9,9.1H423a4.6,4.6,0,0,0,.9-9.1Zm-.9,7.2H412.1a2.7,2.7,0,1,1,0-5.4.7.7,0,0,0,.6-.3.9.9,0,0,0,.3-.6,4.6,4.6,0,1,1,9.1,0,.9.9,0,0,0,.3.6.7.7,0,0,0,.6.3,2.7,2.7,0,1,1,0,5.4Z" transform="translate(-373 -372.7)" fill="#fff"/></svg>