<?xml version="1.0" encoding="utf-8"?>
<!-- Generator: Adobe Illustrator 19.2.0, SVG Export Plug-In . SVG Version: 6.00 Build 0)  -->
<svg version="1.1" id="Layer_1" xmlns="http://www.w3.org/2000/svg" xmlns:xlink="http://www.w3.org/1999/xlink" x="0px" y="0px"
	 viewBox="0 0 760 16.2" style="enable-background:new 0 0 760 16.2;" xml:space="preserve" preserveAspectRatio="none">
<style type="text/css">
	.st0{fill:none;stroke:#FFFFFF;stroke-width:0.6595;stroke-miterlimit:10;}
	.st1{fill:#FFFFFF;}
	.st2{fill:none;stroke:#FFFFFF;stroke-width:0.663;stroke-miterlimit:10;}
	.st3{fill:none;stroke:#FFFFFF;stroke-width:0.4624;stroke-miterlimit:10;}
</style>
<g>
	<g>
		<path class="st0" d="M793.9-27.1c0,15.2-18,28.3-39.9,29L10,12.2C-12,13-30,1.1-30-14.1v-143.4c0-15.2,18-27.2,40-26.7l732.6-6.2
			c22,0.6,40,13.5,40,28.7L793.9-27.1z"/>
		<path class="st1" d="M60-185.2c-24.7,0-41.5,0.5-49.9,1.4c-29.3,3.3-36.2,20.5-39.4,38.7c-2.8,15.9-5.7,109.1,0,130.9
			c5.7,21.7,19.9,26,49.8,27.6c2,0.1,5.4,0.2,10.2,0.2c51.1,0,694.2-6.7,723.2-12c31.6-5.8,34.3-13.5,39.5-28.7
			c5.1-15-5.2-114.5-11.3-134.5c-6-19.6-20.8-24.3-39.5-28.4C726-193.6,142.1-185.2,60-185.2 M30.6,14.5c-4.8,0-8.2-0.1-10.3-0.2
			c-29.9-1.6-45.2-6.2-51-28.4c-5.7-21.8-2.8-115.2,0-131.2c3.2-18.5,10.4-36.1,40.5-39.4c8.5-0.9,25.4-1.4,50.1-1.4
			c84.2,0,665.9-8.5,682.8-4.8c22.3,4.9,34.7,10.7,40.4,29.1c6.2,20,16.5,119.8,11.3,134.8c-5.2,15.1-8,23.4-40.4,29.4
			C725.1,7.8,81.8,14.5,30.6,14.5"/>
		<path class="st0" d="M60-185.2c-24.7,0-41.5,0.5-49.9,1.4c-29.3,3.3-36.2,20.5-39.4,38.7c-2.8,15.9-5.7,109.1,0,130.9
			c5.7,21.7,19.9,26,49.8,27.6c2,0.1,5.4,0.2,10.2,0.2c51.1,0,694.2-6.7,723.2-12c31.6-5.8,34.3-13.5,39.5-28.7
			c5.1-15-5.2-114.5-11.3-134.5c-6-19.6-20.8-24.3-39.5-28.4C726-193.6,142.1-185.2,60-185.2z M30.6,14.5c-4.8,0-8.2-0.1-10.3-0.2
			c-29.9-1.6-45.2-6.2-51-28.4c-5.7-21.8-2.8-115.2,0-131.2c3.2-18.5,10.4-36.1,40.5-39.4c8.5-0.9,25.4-1.4,50.1-1.4
			c84.2,0,665.9-8.5,682.8-4.8c22.3,4.9,34.7,10.7,40.4,29.1c6.2,20,16.5,119.8,11.3,134.8c-5.2,15.1-8,23.4-40.4,29.4
			C725.1,7.8,81.8,14.5,30.6,14.5z"/>
	</g>
	<g>
		<path class="st2" d="M792.7-21.8c-0.3,15.4-18.5,28.3-40.5,28.6L8.1,11.5c-22,0.3-39.7-12-39.4-27.4l2.7-145
			c0.3-15.4,18.5-27.2,40.4-26.2l732.4-0.4c22,1,39.7,14.4,39.4,29.8L792.7-21.8z"/>
		<path class="st1" d="M61.9-187.1c-24.7-0.5-41.5-0.3-49.9,0.5c-29.3,2.8-36.6,20.1-40.1,38.4c-3.1,16.1-7.7,110.2-2.5,132.3
			c5.3,22,19.5,26.7,49.3,28.9c2,0.1,5.4,0.3,10.2,0.4c51.1,0.9,694.2-2,723.3-6.9c31.7-5.3,34.5-13,40-28.3
			c5.4-15.1-3.3-115.5-9.1-135.7c-5.7-20-20.4-25-39-29.4C727.7-191,144-185.6,61.9-187.1 M28.8,14.1c-4.8-0.1-8.2-0.2-10.3-0.4
			c-29.9-2.2-45-7.1-50.4-29.6c-5.3-22.2-0.6-116.5,2.5-132.6c3.6-18.6,11.1-36.3,41.2-39.1c8.5-0.8,25.4-1,50.1-0.5
			c84.2,1.6,665.7-3.9,682.6,0.1c22.3,5.3,34.5,11.5,39.8,30.1c5.8,20.3,14.5,121,9.1,136.1c-5.4,15.1-8.4,23.5-40.9,28.9
			C723.3,12.2,79.9,15.1,28.8,14.1"/>
		<path class="st2" d="M61.9-187.1c-24.7-0.5-41.5-0.3-49.9,0.5c-29.3,2.8-36.6,20.1-40.1,38.4c-3.1,16.1-7.7,110.2-2.5,132.3
			c5.3,22,19.5,26.7,49.3,28.9c2,0.1,5.4,0.3,10.2,0.4c51.1,0.9,694.2-2,723.3-6.9c31.7-5.3,34.5-13,40-28.3
			c5.4-15.1-3.3-115.5-9.1-135.7c-5.7-20-20.4-25-39-29.4C727.7-191,144-185.6,61.9-187.1z M28.8,14.1c-4.8-0.1-8.2-0.2-10.3-0.4
			c-29.9-2.2-45-7.1-50.4-29.6c-5.3-22.2-0.6-116.5,2.5-132.6c3.6-18.6,11.1-36.3,41.2-39.1c8.5-0.8,25.4-1,50.1-0.5
			c84.2,1.6,665.7-3.9,682.6,0.1c22.3,5.3,34.5,11.5,39.8,30.1c5.8,20.3,14.5,121,9.1,136.1c-5.4,15.1-8.4,23.5-40.9,28.9
			C723.3,12.2,79.9,15.1,28.8,14.1z"/>
	</g>
	<path class="st2" d="M64.6-192.1c84.2,2.5,665.6-1.1,682.4,3.1"/>
	<g>
		<path class="st2" d="M790.1-12.4c-0.9,15.4-19.6,27.5-41.6,26.9L4.4,6.8c-22-0.6-39.2-13.6-38.3-29l8.5-144.7
			c0.9-15.4,19.6-26.4,41.5-24.6l731.6,11.9c21.9,1.9,39.1,16,38.2,31.3L790.1-12.4z"/>
		<path class="st1" d="M66.1-189.5c-24.6-1.5-41.4-2-49.9-1.5c-29.4,1.6-37.4,18.6-41.6,36.7c-3.7,15.9-12.2,109.8-7.8,132.1
			C-28.9,0-14.9,5.3,14.8,8.6c2,0.2,5.4,0.5,10.1,0.8c51,3,694.1,8.4,723.4,4.7c31.9-4,35-11.6,41.1-26.6
			c6-14.8,0.8-115.1-4.2-135.5c-4.9-20.2-19.3-25.8-37.8-31C731.3-183.7,148.1-184.6,66.1-189.5 M24.9,10.3
			c-4.8-0.3-8.2-0.5-10.2-0.8c-29.8-3.4-44.7-9-49.2-31.6c-4.4-22.4,4.1-116.4,7.8-132.4c4.3-18.5,12.5-35.8,42.8-37.4
			c8.5-0.5,25.4,0.1,50.1,1.5c84.1,5,665.1,5.7,681.8,10.5c22,6.2,34,12.9,38.6,31.7c5,20.5,10.2,121.1,4.2,135.9
			c-6.1,14.9-9.4,23.1-42.1,27.2C719.3,18.7,75.9,13.3,24.9,10.3"/>
		<path class="st2" d="M747.5-179.1c-16.2-4.6-599.4-5.6-681.4-10.4c-24.6-1.5-41.4-2-49.9-1.5c-29.4,1.6-37.4,18.6-41.6,36.7
			c-3.7,15.9-12.2,109.8-7.8,132.1C-28.9,0-14.9,5.3,14.8,8.6c2,0.2,5.4,0.5,10.1,0.8c51,3,694.1,8.4,723.4,4.7 M747.9-179.9
			c22,6.2,34,12.9,38.6,31.7c5,20.5,10.2,121.1,4.2,135.9c-6.1,14.9-9.4,23.1-42.1,27.2c-29.3,3.7-672.7-1.7-723.7-4.7
			c-4.8-0.3-8.2-0.5-10.2-0.8c-29.8-3.4-44.7-9-49.2-31.6c-4.4-22.4,4.1-116.4,7.8-132.4"/>
	</g>
	<path class="st3" d="M792.4-30c6-14.8,0.8-115.1-4.2-135.5c-4.9-20.2-19.3-25.8-37.8-31"/>
</g>
</svg>
