<svg xmlns="http://www.w3.org/2000/svg" viewBox="0 0 549.4 177.7">
	<title>marveld_liggend_rgb</title>
	<path d="M229.9,290c1.4-.9,8.6-1.4,11-1.4s1.7.5,2,3l4.5,34.8c1.4,10,2.4,17.1,3.2,21.6-1.7.5-8.5.9-10.5.9a2.6,2.6,0,0,1-2.8-2.5c-.4-4.8-1-10.2-2.1-20.6l-2.1-22.6c-2.4,7.9-7.7,23-13.8,41.1a4.1,4.1,0,0,1-3.7,3.2,33,33,0,0,1-6.4.8c-2-6.8-10.6-32.8-14.5-44.7-1.2,11.1-3.6,32.4-5.1,43.9a1.5,1.5,0,0,1-1.7,1.4c-3,0-7.5,0-9-.9,1.7-10,5.1-34.5,9-56.4l-.2-1.6a44.9,44.9,0,0,1,11.1-1.4c1.5,0,2.1.8,3.6,5.1l13.1,36.5c4.1-12.1,10.4-29.2,14.4-38.9Z" transform="translate(-178.9 -223.5)" fill="#002c74"/>
	<path d="M295.7,341c0,4.7-2.4,8.5-8.6,8.5a7.9,7.9,0,0,1-7.8-5.2c-2.4,2.5-6.9,5.2-11,5.2a11.7,11.7,0,0,1-11.8-12.1c0-9.6,11.9-12.3,19.2-13.6l3.5-.6v-1.8c0-4.5-3.2-7.1-7.5-7.1s-7.4,1.9-9.5,3-4.5-3.9-4.3-5.7c4.9-3.3,11.9-6.5,17.7-6.5,7.6,0,15.7,4.9,15.7,16,0,3.9-.4,10.7-.4,17,0,1.2,1.1,2.6,3.9,2.6h.9Zm-27.3-5.7a5.6,5.6,0,0,0,5.9,5.8,5.2,5.2,0,0,0,3.9-1.3c.5-.4.8-1.1.8-2.8v-8.4c-8.3,1.2-10.6,4.2-10.6,6.6Z" transform="translate(-178.9 -223.5)" fill="#002c74"/>
	<path d="M301,311c0-2.5,3.1-5.9,7-5.9s6.8,4,7,9.7c2.6-6.4,6.6-9.7,11.8-9.7a7.9,7.9,0,0,1,3.7,1,3,3,0,0,1,1.3,2.7c0,3.5-3,7.9-4.3,8.8a10.3,10.3,0,0,0-5.8-1.5c-1.4,0-3.8.5-5.1,4.2a10.8,10.8,0,0,0-.8,4.6v20.7c0,1.5-.2,2.4-2.3,2.7a72.9,72.9,0,0,1-10.6.6c.2-5.6.3-11.5.3-17.2V315.5c0-2-.3-3.6-2.2-4.3Z" transform="translate(-178.9 -223.5)" fill="#002c74"/>
	<path d="M345.4,305.1c1.4,0,2.2,1,2.7,2.3,2.1,6.9,5.4,15.9,8.7,27.8,4.1-11.2,7.8-22,10.4-30.1a18.7,18.7,0,0,1,7.2,1.6c2.2,1,1.5,3.4.3,6.6-3.9,9.9-10.1,24.4-13.3,32.9-.6,1.4-1.5,1.9-3.1,2.3a43.4,43.4,0,0,1-8.2,1c-3.6-10.5-7.5-20.6-11-30.2-1.5-4-2.9-7.9-4.6-11.7a30.4,30.4,0,0,1,10.8-2.5Z" transform="translate(-178.9 -223.5)" fill="#002c74"/>
	<path d="M414,338.8c.1,4.3-3.7,8.5-4.9,9a22.9,22.9,0,0,1-8.5,1.7c-14.1,0-21.7-7.6-21.7-21.7,0-11.4,7.5-22.7,20.5-22.7s16.7,8.8,16.7,16.4a9.1,9.1,0,0,1-.5,3c-.3,1.5-3.4,2.7-7.4,3.7-2.3.7-12.3.7-16.8.5.5,8.9,6.8,11.9,12.7,11.9a24.2,24.2,0,0,0,9.7-1.9Zm-15.7-27.1c-3.3,0-6.7,3.2-6.8,10.4a96,96,0,0,0,12,0c.6,0,1-1.1,1-1.9,0-4.8-1.6-8.5-6.1-8.5Z" transform="translate(-178.9 -223.5)" fill="#002c74"/>
	<path d="M422.9,295.4a86.5,86.5,0,0,0-.4-9.9c1.8-.8,8.9-1.9,11.1-1.9s2,.5,2,6.2v46c0,4.6.2,9.8.4,12.5-2.1.5-10.4.8-11.7.8s-1.4-.3-1.4-1.3Z" transform="translate(-178.9 -223.5)" fill="#002c74"/>
	<path d="M472.6,295.6a65.5,65.5,0,0,0-.5-10.1,52.5,52.5,0,0,1,11.2-1.9c1.5,0,1.9.5,1.9,6.3v47.9c0,3.6.8,4.6,3.5,5.4v.2c-.4,2.3-3.2,6.1-5.9,6.1-5.6,0-8.1-2.4-8.9-5.1-3.1,2.3-7.8,5.1-11.5,5.1-11.3,0-18.6-8.3-18.6-20.6,0-14.2,10.8-23.8,24.1-23.8a13.3,13.3,0,0,1,4.7.6Zm0,17.1a11.6,11.6,0,0,0-4.1-.7c-4.9,0-11.6,3.4-11.6,14.6,0,9.6,5.4,14,11,14a10.7,10.7,0,0,0,4.7-1Z" transform="translate(-178.9 -223.5)" fill="#002c74"/>
	<path d="M422.5,372.5c.1-1.5,2.2-3.8,4.6-3.8s4.4,2.9,4.6,7.2c2-4.8,5-7.2,8.5-7.2a5.7,5.7,0,0,1,2.7.7,2.5,2.5,0,0,1,.9,1.9,8.7,8.7,0,0,1-2.8,5.5,8.1,8.1,0,0,0-3.9-1c-1.2,0-3.1.7-4.3,3.6a7.8,7.8,0,0,0-.6,3.5v15.5c0,1.1-.1,1.7-1.5,2s-4.4.3-6.8.3c.1-3.5.2-7.8.2-12.7V376.2c0-1.8-.2-3-1.6-3.5Z" transform="translate(-178.9 -223.5)" fill="#009ddf"/>
	<path d="M471.1,393.9a7.8,7.8,0,0,1-3.2,5.9,15.4,15.4,0,0,1-6.4,1.3c-10.1,0-15.5-5.6-15.5-15.7,0-8.5,5.4-16.7,14.8-16.7s11.8,6.3,11.9,11.8a6.2,6.2,0,0,1-.4,2.2c-.2,1.1-2.7,2-5.5,2.6s-8.9.4-12.8.3c.3,6.8,4.8,9.7,9.8,9.7a18.7,18.7,0,0,0,7.1-1.4Zm-11.2-20.8c-2.8,0-5.5,2.6-5.8,8.1a84.2,84.2,0,0,0,10.1,0c.6,0,1-.7,1-1.4,0-3.8-1.5-6.7-5.2-6.7Z" transform="translate(-178.9 -223.5)" fill="#009ddf"/>
	<path d="M503.3,394a8.1,8.1,0,0,1-2.3,5.4c-1.9,1.2-4.9,1.7-7.6,1.7-8.8,0-16.1-5-16.1-15.5s7.5-16.9,17.2-16.9c3.8,0,7,1,8.9,2.7.2.8-.4,3.4-2,4A17.2,17.2,0,0,0,495,374c-5.1,0-9.4,3.4-9.4,10.4s5.5,10.9,10.3,10.9a17.1,17.1,0,0,0,7.2-1.4Z" transform="translate(-178.9 -223.5)" fill="#009ddf"/>
	<path d="M508.6,372.5c.1-1.5,2.3-3.8,4.6-3.8s4.4,2.9,4.6,7.2c2-4.8,5-7.2,8.5-7.2a5.7,5.7,0,0,1,2.7.7,2.5,2.5,0,0,1,.9,1.9,8.7,8.7,0,0,1-2.8,5.5,7.6,7.6,0,0,0-3.9-1c-1.2,0-3.1.7-4.2,3.6a7.8,7.8,0,0,0-.7,3.5v15.5c0,1.1-.1,1.7-1.5,2s-4.4.3-6.8.3c.2-3.5.2-7.8.2-12.7V376.2c0-1.8-.2-3-1.6-3.5Z" transform="translate(-178.9 -223.5)" fill="#009ddf"/>
	<path d="M557.2,393.9a8,8,0,0,1-3.1,5.9,16.2,16.2,0,0,1-6.4,1.3c-10.2,0-15.6-5.6-15.6-15.7,0-8.5,5.4-16.7,14.8-16.7s11.9,6.3,11.9,11.8a10.6,10.6,0,0,1-.3,2.2c-.2,1.1-2.8,2-5.5,2.6s-9,.4-12.9.3c.3,6.8,4.8,9.7,9.8,9.7a19.3,19.3,0,0,0,7.2-1.4ZM546,373.1c-2.7,0-5.5,2.6-5.7,8.1a84.2,84.2,0,0,0,10.1,0c.5,0,.9-.7.9-1.4.1-3.8-1.5-6.7-5.2-6.7Z" transform="translate(-178.9 -223.5)" fill="#009ddf"/>
	<path d="M590.4,395.6c0,3.2-1.8,5.5-5.7,5.5a5.5,5.5,0,0,1-5.4-3.9,12.1,12.1,0,0,1-8.3,3.9,8.2,8.2,0,0,1-8.4-8.5c0-7.2,9.2-9.1,14-10,1.3-.2,2.1-.5,2.7-.5v-1.8a5.3,5.3,0,0,0-5.7-5.6c-2.8,0-5.4,1.4-7.2,2.4s-3-2.4-2.8-3.6c3.2-2.3,8.1-4.8,12.4-4.8,6,0,11.1,4,11.1,11.6,0,3-.3,8.5-.3,13.1,0,1,.8,2.1,2.7,2.1h.9Zm-20.1-4.3a4.3,4.3,0,0,0,4.5,4.4,4.6,4.6,0,0,0,3.8-1.7c.4-.3.6-.8.6-2.1v-6.2c-5.9.9-8.9,3.1-8.9,5.5Z" transform="translate(-178.9 -223.5)" fill="#009ddf"/>
	<path d="M614.9,394.4c.3,1.6.1,3.5-1,4.4s-4.6,2.3-7.5,2.3c-7,0-9.3-4.5-9.3-9.2V374.7c-2.3,0-3.8-1.1-3.8-1.7.9-2.2,6.4-7.1,7.6-8.2a9,9,0,0,1,4.9-2c-.2,2.2-.4,4.9-.4,6.8h10.3c-.8,4.7-2.3,4.7-3.7,4.7l-6.8.4c-.2,5.8-.2,13.1,0,16s2.4,4.8,4.8,4.8a10.8,10.8,0,0,0,4.8-1.2Z" transform="translate(-178.9 -223.5)" fill="#009ddf"/>
	<path d="M629.2,398.6c0,1.3-.4,1.6-1.9,1.8a51.4,51.4,0,0,1-6.4.3c.1-2.9.3-6.9.3-10.9V377.9c0-4.3-.2-6.4-.3-7.9a35.1,35.1,0,0,1,7.1-.8c1,0,1.2.3,1.2,4.4Zm-3.6-44c2.5,0,3.9,1.9,3.9,4.4a4.4,4.4,0,0,1-4.4,4.6,4,4,0,0,1-4.2-4.4,4.5,4.5,0,0,1,4.6-4.6Z" transform="translate(-178.9 -223.5)" fill="#009ddf"/>
	<path d="M661.4,393.9a8.1,8.1,0,0,1-3.2,5.9,16.2,16.2,0,0,1-6.4,1.3c-10.1,0-15.6-5.6-15.6-15.7,0-8.5,5.5-16.7,14.8-16.7s11.9,6.3,12,11.8a6.2,6.2,0,0,1-.4,2.2c-.2,1.1-2.8,2-5.5,2.6s-8.9.4-12.8.3c.2,6.8,4.8,9.7,9.7,9.7a19.3,19.3,0,0,0,7.2-1.4Zm-11.2-20.8c-2.8,0-5.5,2.6-5.8,8.1a84.2,84.2,0,0,0,10.1,0c.6,0,.9-.7.9-1.4.1-3.8-1.4-6.7-5.1-6.7Z" transform="translate(-178.9 -223.5)" fill="#009ddf"/>
	<path d="M613.9,234.5c-1.3-7.7-7.9-12.5-14.7-10.6s-10,9.4-7.1,16.7l14.8,37.5c2.9,7.3,7.7,12.6,10.7,11.8s4.4-7.9,3.1-15.6Z" transform="translate(-178.9 -223.5)" fill="#ffd000"/>
	<path d="M672.9,263.6c4.3-4.6,4.1-11.2-.4-14.6s-10.8-1.8-14,3.6l-16.8,27.5c-3.2,5.4-4.3,11-2.3,12.5s7.1-1,11.4-5.6Z" transform="translate(-178.9 -223.5)" fill="#ffd000"/>
	<path d="M573.5,277.8c-4-3-9.2-2.3-11.6,1.6s-.4,8.8,4.1,10.9l23.5,10.9c4.6,2.1,9.2,2.4,10.2.7s-1.4-5.6-5.5-8.6Z" transform="translate(-178.9 -223.5)" fill="#ffd000"/>
	<path d="M511.3,300.9c-3.9,14.8.7,30.7,13.6,39.6,20.1,13.9,50.4,9.8,70.7-.3,5.4-2.6,6.7-5.3,4.8-6.3s-4.1,0-11.3,2.6c-15,5.5-34.6,5.9-48.2-4.6-10.4-7.9-13.7-21.6-10.5-33.9,1.5-5.8-17.6-2.8-19.1,2.9Z" transform="translate(-178.9 -223.5)" fill="#c8d20a"/>
	<path d="M720,383.1c9.1-11.7,11.5-27.6,3.5-40.6-11.7-19-41-21.9-57.7-20.9-7.2.5-11.9,1.5-12.4,3.1s2.9,3,5.2,3.1c16.9.5,37.6,5.2,46.9,21,6.4,11,4.9,24.8-2.8,34.8-2.7,3.4,2.3,4.4,4.8,4.4,4-.1,9.9-1.5,12.5-4.9Z" transform="translate(-178.9 -223.5)" fill="#c8d20a"/>
	<path d="M643.3,319.7a18.5,18.5,0,1,1-18.5-18.4A18.5,18.5,0,0,1,643.3,319.7Z" transform="translate(-178.9 -223.5)" fill="#f29500"/>
</svg>
