<svg xmlns="http://www.w3.org/2000/svg" xmlns:xlink="http://www.w3.org/1999/xlink" viewBox="0 0 117.19 117.19"><defs><style>.a{fill:#4be4ff;fill-opacity:0.85;}.b{fill:url(#a);}.c{fill:#fff;}</style><linearGradient id="a" x1="101.82" y1="101.82" x2="15.37" y2="15.37" gradientUnits="userSpaceOnUse"><stop offset="0" stop-color="#4b8aff"/><stop offset="1" stop-color="#377dff"/></linearGradient></defs><title>logo</title><rect class="a" x="7.5" y="7.5" width="105" height="105" rx="31.65" transform="translate(24.08 -18.92) rotate(21)"/><rect class="b" x="6.1" y="6.1" width="105" height="105" rx="31.65"/><path class="c" d="M40.88,36H64.5c8.78,0,13.68,5.47,13.68,12.24,0,6.05-3.89,10.08-8.35,11,5.11.8,9.29,5.91,9.29,11.81,0,7.42-5,13-14,13H40.88ZM62.77,55.86c4.32,0,6.77-2.59,6.77-6.19s-2.45-6.27-6.77-6.27H49.31V55.86Zm.36,20.74c4.61,0,7.35-2.52,7.35-6.7,0-3.6-2.52-6.62-7.35-6.62H49.31V76.6Z" transform="translate(-1.4 -1.4)"/></svg>