<svg xmlns="http://www.w3.org/2000/svg" viewBox="0 0 382.8 141">
	<path d="M404.7,295.1c0,10.2-12.1,19-26.9,19.5L57.3,321.5c-14.8.5-26.9-7.5-26.9-17.7V207.2c0-10.3,12.1-18.4,26.9-18l320.5,5.4c14.8.3,26.9,9,26.9,19.3Z" transform="translate(-26.2 -183.6)" fill="none" stroke="rgb(255, 255, 255)" stroke-miterlimit="10" stroke-width="0.44"/>
	<path d="M91,188.5c-16.6,0-27.9.4-33.6,1-19.7,2.2-24.4,13.8-26.5,26s-3.9,73.5,0,88.2,13.4,17.6,33.5,18.6h6.8c34.5,0,287-4.5,306.5-8.1,21.3-3.9,23.1-9.1,26.6-19.3s4.1-67.6,0-81-14-16.4-26.6-19.2c-11.1-2.4-231.3-6.3-286.7-6.3M71.2,323H64.3c-20.1-1-30.4-4.2-34.3-19.1s-1.9-77.6,0-88.3c2.2-12.5,7-24.3,27.3-26.6,5.7-.6,17.1-1,33.7-1,56.8,0,275.5,3.9,286.9,6.4,15.1,3.3,23.4,7.2,27.2,19.5s3.5,71.2,0,81.3-5.4,15.8-27.2,19.8c-19.6,3.6-272.2,8.1-306.7,8.1" transform="translate(-26.2 -183.6)" fill="#fff" stroke="rgb(255, 255, 255)" stroke-miterlimit="10" stroke-width="0.67"/>
	<path d="M91,188.5c-16.6,0-27.9.4-33.6,1-19.7,2.2-24.4,13.8-26.5,26s-3.9,73.5,0,88.2,13.4,17.6,33.5,18.6h6.8c34.5,0,287-4.5,306.5-8.1,21.3-3.9,23.1-9.1,26.6-19.3s4.1-67.6,0-81-14-16.4-26.6-19.2C366.6,192.4,146.4,188.5,91,188.5ZM71.2,323H64.3c-20.1-1-30.4-4.2-34.3-19.1s-1.9-77.6,0-88.3c2.2-12.5,7-24.3,27.3-26.6,5.7-.6,17.1-1,33.7-1,56.8,0,275.5,3.9,286.9,6.4,15.1,3.3,23.4,7.2,27.2,19.5s3.5,71.2,0,81.3-5.4,15.8-27.2,19.8C358.3,318.5,105.7,323,71.2,323Z" transform="translate(-26.2 -183.6)" fill="rgb(255, 255, 255)" stroke="rgb(255, 255, 255)" stroke-miterlimit="10" stroke-width="0.44"/>
	<path d="M403.9,298.6c-.1,10.4-12.4,19.1-27.2,19.3L56.1,321c-14.8.3-26.8-8-26.6-18.4l1.8-97.7c.2-10.3,12.5-18.3,27.3-17.6l320.3,9.3c14.8.6,26.8,9.6,26.6,20Z" transform="translate(-26.2 -183.6)" fill="none" stroke="rgb(255, 255, 255)" stroke-miterlimit="10" stroke-width="0.45"/>
	<path d="M92.3,187.3c-16.6-.4-28-.2-33.6.3-19.8,1.8-24.7,13.5-27.1,25.8s-5.2,74.2-1.6,89.1,13.1,18,33.1,19.5l6.9.2c34.4.7,287-1.3,306.6-4.6,21.4-3.6,23.2-8.7,26.9-19s5.4-68.3,1.5-81.9-13.7-16.9-26.2-19.9c-11-2.6-231.2-8.5-286.5-9.5M70,322.8l-6.9-.2c-20.2-1.5-30.4-4.8-34-20s-.4-78.4,1.7-89.3c2.4-12.5,7.4-24.4,27.7-26.3,5.8-.5,17.1-.7,33.8-.4,56.7,1.1,275.4,6.9,286.8,9.7,14.9,3.6,23.2,7.7,26.8,20.3s2.1,71.9-1.5,82.1-5.7,15.8-27.6,19.5c-19.7,3.3-272.4,5.3-306.8,4.6" transform="translate(-26.2 -183.6)" fill="#fff" stroke="rgb(255, 255, 255)" stroke-miterlimit="10" stroke-width="0.67"/>
	<path d="M92.3,187.3c-16.6-.4-28-.2-33.6.3-19.8,1.8-24.7,13.5-27.1,25.8s-5.2,74.2-1.6,89.1,13.1,18,33.1,19.5l6.9.2c34.4.7,287-1.3,306.6-4.6,21.4-3.6,23.2-8.7,26.9-19s5.4-68.3,1.5-81.9-13.7-16.9-26.2-19.9C367.8,194.2,147.6,188.3,92.3,187.3ZM70,322.8l-6.9-.2c-20.2-1.5-30.4-4.8-34-20s-.4-78.4,1.7-89.3c2.4-12.5,7.4-24.4,27.7-26.3,5.8-.5,17.1-.7,33.8-.4,56.7,1.1,275.4,6.9,286.8,9.7,14.9,3.6,23.2,7.7,26.8,20.3s2.1,71.9-1.5,82.1-5.7,15.8-27.6,19.5C357.1,321.5,104.4,323.5,70,322.8Z" transform="translate(-26.2 -183.6)" fill="none" stroke="rgb(255, 255, 255)" stroke-miterlimit="10" stroke-width="0.45"/>
	<path d="M94.1,183.9c56.7,1.7,275.3,8.8,286.6,11.6" transform="translate(-26.2 -183.6)" fill="none" stroke="rgb(255, 255, 255)" stroke-miterlimit="10" stroke-width="0.45"/>
	<path d="M402.1,304.9c-.6,10.4-13.2,18.6-28,18.2L53.6,317.9c-14.8-.4-26.4-9.2-25.8-19.5l5.7-97.5c.6-10.4,13.2-17.8,27.9-16.5l319.8,17.5c14.8,1.3,26.4,10.8,25.8,21.2Z" transform="translate(-26.2 -183.6)" fill="none" stroke="rgb(255, 255, 255)" stroke-miterlimit="10" stroke-width="0.45"/>
	<path d="M95.1,185.7c-16.6-1-27.9-1.4-33.6-1-19.8,1-25.2,12.5-28.1,24.7-2.5,10.7-8.2,73.9-5.2,89s12.4,18.5,32.4,20.7c1.3.2,3.6.3,6.8.5,34.4,2.1,286.9,5.7,306.6,3.2,21.5-2.7,23.6-7.8,27.7-18s8.2-67.9,4.8-81.7-13-17.4-25.4-20.9-230.8-13.3-286-16.5M67.4,320.2c-3.2-.2-5.6-.3-6.9-.5-20.1-2.3-30.2-6-33.2-21.3s2.8-78.4,5.3-89.1c2.9-12.5,8.4-24.2,28.8-25.2,5.8-.4,17.1,0,33.8,1,56.6,3.3,275,13.4,286.2,16.6,14.8,4.2,22.9,8.6,26,21.3s-.8,72-4.9,82-6.3,15.6-28.3,18.4c-19.8,2.5-272.5-1.1-306.8-3.2" transform="translate(-26.2 -183.6)" fill="#fff" stroke="rgb(255, 255, 255)" stroke-miterlimit="10" stroke-width="0.67"/>
	<path d="M407.4,223c-3.1-12.7-11.2-17.1-26-21.3h-2.5c-18.6-3.5-231.2-12.9-283.8-16-16.6-1-27.9-1.4-33.6-1-19.7,1-25.1,12.4-28,24.5h-.9c-2.5,10.7-8.2,74-5.3,89.1s13.1,19,33.2,21.3c1.3.2,3.7.3,6.9.5,34.3,2.1,283,0,302.8-2.4,22-2.8,28.6-6.5,32.7-16.5S410.7,236.9,407.4,223Z" transform="translate(-26.2 -183.6)" fill="rgb(255, 255, 255)" stroke="rgb(255, 255, 255)" stroke-miterlimit="10" stroke-width="0.45"/>
</svg>
